<?xml version="1.0" encoding="UTF-8"?>
<svg width="285px" height="38px" viewBox="0 0 285 38" version="1.1" xmlns="http://www.w3.org/2000/svg" xmlns:xlink="http://www.w3.org/1999/xlink">
    <title>æccelerator</title>
    <g id="Styles" stroke="none" stroke-width="1" fill="none" fill-rule="evenodd">
        <g id="Artboard" transform="translate(-74.000000, -324.000000)" fill="#FFFFFF" fill-rule="nonzero">
            <path d="M101.2,361.55 C104.9,361.55 108.333333,360.783333 111.5,359.25 L111.5,359.25 L111.5,352.85 C108.566667,354.35 105.4,355.1 102,355.1 C99.2666667,355.1 97.5833333,353.95 96.95,351.65 C96.8166667,351.25 96.75,350.783333 96.75,350.25 L96.75,350.25 L112.5,350.25 C112.5,350.05 112.508333,349.716667 112.525,349.25 C112.541667,348.783333 112.55,348.433333 112.55,348.2 C112.55,344.033333 111.516667,340.858333 109.45,338.675 C107.383333,336.491667 104.583333,335.4 101.05,335.4 C97.9833333,335.4 95.5666667,336.316667 93.8,338.15 C92.5,336.316667 90.1,335.4 86.6,335.4 C85.3,335.4 83.6833333,335.616667 81.75,336.05 C79.8166667,336.483333 78.2166667,337.033333 76.95,337.7 L76.95,337.7 L76.95,344.2 C78.2166667,343.5 79.65,342.941667 81.25,342.525 C82.85,342.108333 84.15,341.9 85.15,341.9 C86.7833333,341.9 87.8,342.266667 88.2,343 C88.4666667,343.533333 88.6,344.333333 88.6,345.4 L88.6,345.4 L88.6,346.1 C83.8666667,346.266667 80.3666667,346.95 78.1,348.15 C75.7666667,349.416667 74.6,351.466667 74.6,354.3 C74.6,356.4 75.3083333,358.125 76.725,359.475 C78.1416667,360.825 80.05,361.5 82.45,361.5 C86.7833333,361.5 90.0666667,360.083333 92.3,357.25 C94.1333333,360.116667 97.1,361.55 101.2,361.55 Z M104.9,345.8 L96.85,345.8 C96.95,344.466667 97.3833333,343.425 98.15,342.675 C98.9166667,341.925 99.8833333,341.55 101.05,341.55 C102.25,341.55 103.191667,341.941667 103.875,342.725 C104.558333,343.508333 104.9,344.533333 104.9,345.8 L104.9,345.8 Z M84.8,355.95 C83.0333333,355.95 82.15,355.183333 82.15,353.65 C82.15,352.616667 82.5666667,351.85 83.4,351.35 C84.2666667,350.816667 86,350.5 88.6,350.4 L88.6,350.4 L88.6,351.55 C88.6,352.783333 88.3833333,353.716667 87.95,354.35 C87.2833333,355.416667 86.2333333,355.95 84.8,355.95 Z M128.25,361.5 C131.216667,361.5 133.883333,360.9 136.25,359.7 L136.25,359.7 L136.25,353 C135.183333,353.633333 134.066667,354.1 132.9,354.4 C131.733333,354.7 130.683333,354.85 129.75,354.85 C127.75,354.85 126.225,354.291667 125.175,353.175 C124.125,352.058333 123.6,350.483333 123.6,348.45 C123.6,346.65 124.108333,345.133333 125.125,343.9 C126.141667,342.666667 127.716667,342.05 129.85,342.05 C131.05,342.05 132.116667,342.191667 133.05,342.475 C133.983333,342.758333 134.933333,343.133333 135.9,343.6 L135.9,343.6 L135.9,336.7 C133.966667,335.8 131.6,335.35 128.8,335.35 C126.233333,335.35 123.891667,335.833333 121.775,336.8 C119.658333,337.766667 117.975,339.216667 116.725,341.15 C115.475,343.083333 114.85,345.533333 114.85,348.5 C114.85,351.033333 115.325,353.283333 116.275,355.25 C117.225,357.216667 118.691667,358.75 120.675,359.85 C122.658333,360.95 125.183333,361.5 128.25,361.5 Z M152.3,361.5 C155.266667,361.5 157.933333,360.9 160.3,359.7 L160.3,359.7 L160.3,353 C159.233333,353.633333 158.116667,354.1 156.95,354.4 C155.783333,354.7 154.733333,354.85 153.8,354.85 C151.8,354.85 150.275,354.291667 149.225,353.175 C148.175,352.058333 147.65,350.483333 147.65,348.45 C147.65,346.65 148.158333,345.133333 149.175,343.9 C150.191667,342.666667 151.766667,342.05 153.9,342.05 C155.1,342.05 156.166667,342.191667 157.1,342.475 C158.033333,342.758333 158.983333,343.133333 159.95,343.6 L159.95,343.6 L159.95,336.7 C158.016667,335.8 155.65,335.35 152.85,335.35 C150.283333,335.35 147.941667,335.833333 145.825,336.8 C143.708333,337.766667 142.025,339.216667 140.775,341.15 C139.525,343.083333 138.9,345.533333 138.9,348.5 C138.9,351.033333 139.375,353.283333 140.325,355.25 C141.275,357.216667 142.741667,358.75 144.725,359.85 C146.708333,360.95 149.233333,361.5 152.3,361.5 Z M176.8,361.5 C178.9,361.5 180.833333,361.291667 182.6,360.875 C184.366667,360.458333 186.083333,359.866667 187.75,359.1 L187.75,359.1 L187.75,352.55 C186.35,353.283333 184.933333,353.858333 183.5,354.275 C182.066667,354.691667 180.216667,354.9 177.95,354.9 C176.116667,354.9 174.625,354.5 173.475,353.7 C172.325,352.9 171.716667,351.816667 171.65,350.45 L171.65,350.45 L188.85,350.45 C188.883333,350.15 188.908333,349.791667 188.925,349.375 C188.941667,348.958333 188.95,348.583333 188.95,348.25 C188.95,343.95 187.908333,340.741667 185.825,338.625 C183.741667,336.508333 180.716667,335.45 176.75,335.45 C173.616667,335.45 171.033333,336.066667 169,337.3 C166.966667,338.533333 165.45,340.141667 164.45,342.125 C163.45,344.108333 162.95,346.25 162.95,348.55 C162.95,352.683333 164.175,355.875 166.625,358.125 C169.075,360.375 172.466667,361.5 176.8,361.5 Z M181,345.8 L171.8,345.8 C171.933333,344.433333 172.441667,343.4 173.325,342.7 C174.208333,342 175.316667,341.65 176.65,341.65 C178.016667,341.65 179.083333,342.033333 179.85,342.8 C180.616667,343.566667 181,344.566667 181,345.8 L181,345.8 Z M201.15,361.55 C203.116667,361.55 204.633333,361.316667 205.7,360.85 L205.7,360.85 L205.7,354.15 C204.8,354.45 204.066667,354.6 203.5,354.6 C202.066667,354.6 201.283333,354.233333 201.15,353.5 C201.016667,352.866667 200.95,351.883333 200.95,350.55 L200.95,350.55 L200.95,324.15 L192.55,324.15 L192.55,350.6 C192.55,353.4 192.8,355.616667 193.3,357.25 C194.3,360.116667 196.916667,361.55 201.15,361.55 Z M220.55,361.5 C222.65,361.5 224.583333,361.291667 226.35,360.875 C228.116667,360.458333 229.833333,359.866667 231.5,359.1 L231.5,359.1 L231.5,352.55 C230.1,353.283333 228.683333,353.858333 227.25,354.275 C225.816667,354.691667 223.966667,354.9 221.7,354.9 C219.866667,354.9 218.375,354.5 217.225,353.7 C216.075,352.9 215.466667,351.816667 215.4,350.45 L215.4,350.45 L232.6,350.45 C232.633333,350.15 232.658333,349.791667 232.675,349.375 C232.691667,348.958333 232.7,348.583333 232.7,348.25 C232.7,343.95 231.658333,340.741667 229.575,338.625 C227.491667,336.508333 224.466667,335.45 220.5,335.45 C217.366667,335.45 214.783333,336.066667 212.75,337.3 C210.716667,338.533333 209.2,340.141667 208.2,342.125 C207.2,344.108333 206.7,346.25 206.7,348.55 C206.7,352.683333 207.925,355.875 210.375,358.125 C212.825,360.375 216.216667,361.5 220.55,361.5 Z M224.75,345.8 L215.55,345.8 C215.683333,344.433333 216.191667,343.4 217.075,342.7 C217.958333,342 219.066667,341.65 220.4,341.65 C221.766667,341.65 222.833333,342.033333 223.6,342.8 C224.366667,343.566667 224.75,344.566667 224.75,345.8 L224.75,345.8 Z M245,361 L245,350.65 C245,350.116667 245.016667,349.475 245.05,348.725 C245.083333,347.975 245.15,347.233333 245.25,346.5 C245.416667,345.466667 245.883333,344.566667 246.65,343.8 C247.416667,343.033333 248.4,342.65 249.6,342.65 C250.9,342.65 252.3,343.15 253.8,344.15 L253.8,344.15 L257.8,337.2 C257.166667,336.7 256.4,336.291667 255.5,335.975 C254.6,335.658333 253.533333,335.5 252.3,335.5 C250.6,335.5 249.1,335.925 247.8,336.775 C246.5,337.625 245.533333,338.7 244.9,340 L244.9,340 L244.9,335.9 L236.4,335.9 L236.4,361 L245,361 Z M269.45,361.5 C272.216667,361.5 274.6,360.816667 276.6,359.45 L276.6,359.45 L276.6,360.85 L283.45,360.85 L283.45,335.6 L276.6,336.6 L276.6,337.35 C274.6,335.983333 272.216667,335.3 269.45,335.3 C265.983333,335.3 263.041667,336.583333 260.625,339.15 C258.208333,341.716667 257,344.816667 257,348.45 C257,352.05 258.208333,355.125 260.625,357.675 C263.041667,360.225 265.983333,361.5 269.45,361.5 Z M270.5,355.3 C268.533333,355.3 266.933333,354.616667 265.7,353.25 C264.466667,351.883333 263.85,350.283333 263.85,348.45 C263.85,346.55 264.466667,344.925 265.7,343.575 C266.933333,342.225 268.533333,341.55 270.5,341.55 C272.733333,341.55 274.766667,342.516667 276.6,344.45 L276.6,344.45 L276.6,352.35 C274.766667,354.316667 272.733333,355.3 270.5,355.3 Z M297.6,361 L297.6,342.25 L303.85,342.25 L303.85,336 L297.6,336 L297.6,327.05 L289.55,329.7 L289.55,361 L297.6,361 Z M319.2,361.5 C323.466667,361.5 326.841667,360.266667 329.325,357.8 C331.808333,355.333333 333.05,352.216667 333.05,348.45 C333.05,344.583333 331.858333,341.433333 329.475,339 C327.091667,336.566667 323.666667,335.35 319.2,335.35 C316.3,335.35 313.816667,335.933333 311.75,337.1 C309.683333,338.266667 308.1,339.841667 307,341.825 C305.9,343.808333 305.35,346.066667 305.35,348.6 C305.35,352.566667 306.583333,355.708333 309.05,358.025 C311.516667,360.341667 314.9,361.5 319.2,361.5 Z M319.3,354.85 C317.533333,354.85 316.216667,354.275 315.35,353.125 C314.483333,351.975 314.05,350.433333 314.05,348.5 C314.05,346.7 314.458333,345.175 315.275,343.925 C316.091667,342.675 317.416667,342.05 319.25,342.05 C321.116667,342.05 322.441667,342.675 323.225,343.925 C324.008333,345.175 324.4,346.7 324.4,348.5 C324.4,350.3 323.991667,351.808333 323.175,353.025 C322.358333,354.241667 321.066667,354.85 319.3,354.85 Z M345.5,361 L345.5,350.65 C345.5,350.116667 345.516667,349.475 345.55,348.725 C345.583333,347.975 345.65,347.233333 345.75,346.5 C345.916667,345.466667 346.383333,344.566667 347.15,343.8 C347.916667,343.033333 348.9,342.65 350.1,342.65 C351.4,342.65 352.8,343.15 354.3,344.15 L354.3,344.15 L358.3,337.2 C357.666667,336.7 356.9,336.291667 356,335.975 C355.1,335.658333 354.033333,335.5 352.8,335.5 C351.1,335.5 349.6,335.925 348.3,336.775 C347,337.625 346.033333,338.7 345.4,340 L345.4,340 L345.4,335.9 L336.9,335.9 L336.9,361 L345.5,361 Z" id="æccelerator"></path>
        </g>
    </g>
</svg>