<?xml version="1.0" encoding="UTF-8"?>
<svg width="285px" height="38px" viewBox="0 0 285 38" version="1.1" xmlns="http://www.w3.org/2000/svg" xmlns:xlink="http://www.w3.org/1999/xlink">
    <title>æccelerator</title>
    <g id="Styles" stroke="none" stroke-width="1" fill="none" fill-rule="evenodd">
        <g id="Artboard" transform="translate(-68.000000, -154.000000)" fill="#000000" fill-rule="nonzero">
            <path d="M95.2,191.55 C98.9,191.55 102.333333,190.783333 105.5,189.25 L105.5,189.25 L105.5,182.85 C102.566667,184.35 99.4,185.1 96,185.1 C93.2666667,185.1 91.5833333,183.95 90.95,181.65 C90.8166667,181.25 90.75,180.783333 90.75,180.25 L90.75,180.25 L106.5,180.25 C106.5,180.05 106.508333,179.716667 106.525,179.25 C106.541667,178.783333 106.55,178.433333 106.55,178.2 C106.55,174.033333 105.516667,170.858333 103.45,168.675 C101.383333,166.491667 98.5833333,165.4 95.05,165.4 C91.9833333,165.4 89.5666667,166.316667 87.8,168.15 C86.5,166.316667 84.1,165.4 80.6,165.4 C79.3,165.4 77.6833333,165.616667 75.75,166.05 C73.8166667,166.483333 72.2166667,167.033333 70.95,167.7 L70.95,167.7 L70.95,174.2 C72.2166667,173.5 73.65,172.941667 75.25,172.525 C76.85,172.108333 78.15,171.9 79.15,171.9 C80.7833333,171.9 81.8,172.266667 82.2,173 C82.4666667,173.533333 82.6,174.333333 82.6,175.4 L82.6,175.4 L82.6,176.1 C77.8666667,176.266667 74.3666667,176.95 72.1,178.15 C69.7666667,179.416667 68.6,181.466667 68.6,184.3 C68.6,186.4 69.3083333,188.125 70.725,189.475 C72.1416667,190.825 74.05,191.5 76.45,191.5 C80.7833333,191.5 84.0666667,190.083333 86.3,187.25 C88.1333333,190.116667 91.1,191.55 95.2,191.55 Z M98.9,175.8 L90.85,175.8 C90.95,174.466667 91.3833333,173.425 92.15,172.675 C92.9166667,171.925 93.8833333,171.55 95.05,171.55 C96.25,171.55 97.1916667,171.941667 97.875,172.725 C98.5583333,173.508333 98.9,174.533333 98.9,175.8 L98.9,175.8 Z M78.8,185.95 C77.0333333,185.95 76.15,185.183333 76.15,183.65 C76.15,182.616667 76.5666667,181.85 77.4,181.35 C78.2666667,180.816667 80,180.5 82.6,180.4 L82.6,180.4 L82.6,181.55 C82.6,182.783333 82.3833333,183.716667 81.95,184.35 C81.2833333,185.416667 80.2333333,185.95 78.8,185.95 Z M122.25,191.5 C125.216667,191.5 127.883333,190.9 130.25,189.7 L130.25,189.7 L130.25,183 C129.183333,183.633333 128.066667,184.1 126.9,184.4 C125.733333,184.7 124.683333,184.85 123.75,184.85 C121.75,184.85 120.225,184.291667 119.175,183.175 C118.125,182.058333 117.6,180.483333 117.6,178.45 C117.6,176.65 118.108333,175.133333 119.125,173.9 C120.141667,172.666667 121.716667,172.05 123.85,172.05 C125.05,172.05 126.116667,172.191667 127.05,172.475 C127.983333,172.758333 128.933333,173.133333 129.9,173.6 L129.9,173.6 L129.9,166.7 C127.966667,165.8 125.6,165.35 122.8,165.35 C120.233333,165.35 117.891667,165.833333 115.775,166.8 C113.658333,167.766667 111.975,169.216667 110.725,171.15 C109.475,173.083333 108.85,175.533333 108.85,178.5 C108.85,181.033333 109.325,183.283333 110.275,185.25 C111.225,187.216667 112.691667,188.75 114.675,189.85 C116.658333,190.95 119.183333,191.5 122.25,191.5 Z M146.3,191.5 C149.266667,191.5 151.933333,190.9 154.3,189.7 L154.3,189.7 L154.3,183 C153.233333,183.633333 152.116667,184.1 150.95,184.4 C149.783333,184.7 148.733333,184.85 147.8,184.85 C145.8,184.85 144.275,184.291667 143.225,183.175 C142.175,182.058333 141.65,180.483333 141.65,178.45 C141.65,176.65 142.158333,175.133333 143.175,173.9 C144.191667,172.666667 145.766667,172.05 147.9,172.05 C149.1,172.05 150.166667,172.191667 151.1,172.475 C152.033333,172.758333 152.983333,173.133333 153.95,173.6 L153.95,173.6 L153.95,166.7 C152.016667,165.8 149.65,165.35 146.85,165.35 C144.283333,165.35 141.941667,165.833333 139.825,166.8 C137.708333,167.766667 136.025,169.216667 134.775,171.15 C133.525,173.083333 132.9,175.533333 132.9,178.5 C132.9,181.033333 133.375,183.283333 134.325,185.25 C135.275,187.216667 136.741667,188.75 138.725,189.85 C140.708333,190.95 143.233333,191.5 146.3,191.5 Z M170.8,191.5 C172.9,191.5 174.833333,191.291667 176.6,190.875 C178.366667,190.458333 180.083333,189.866667 181.75,189.1 L181.75,189.1 L181.75,182.55 C180.35,183.283333 178.933333,183.858333 177.5,184.275 C176.066667,184.691667 174.216667,184.9 171.95,184.9 C170.116667,184.9 168.625,184.5 167.475,183.7 C166.325,182.9 165.716667,181.816667 165.65,180.45 L165.65,180.45 L182.85,180.45 C182.883333,180.15 182.908333,179.791667 182.925,179.375 C182.941667,178.958333 182.95,178.583333 182.95,178.25 C182.95,173.95 181.908333,170.741667 179.825,168.625 C177.741667,166.508333 174.716667,165.45 170.75,165.45 C167.616667,165.45 165.033333,166.066667 163,167.3 C160.966667,168.533333 159.45,170.141667 158.45,172.125 C157.45,174.108333 156.95,176.25 156.95,178.55 C156.95,182.683333 158.175,185.875 160.625,188.125 C163.075,190.375 166.466667,191.5 170.8,191.5 Z M175,175.8 L165.8,175.8 C165.933333,174.433333 166.441667,173.4 167.325,172.7 C168.208333,172 169.316667,171.65 170.65,171.65 C172.016667,171.65 173.083333,172.033333 173.85,172.8 C174.616667,173.566667 175,174.566667 175,175.8 L175,175.8 Z M195.15,191.55 C197.116667,191.55 198.633333,191.316667 199.7,190.85 L199.7,190.85 L199.7,184.15 C198.8,184.45 198.066667,184.6 197.5,184.6 C196.066667,184.6 195.283333,184.233333 195.15,183.5 C195.016667,182.866667 194.95,181.883333 194.95,180.55 L194.95,180.55 L194.95,154.15 L186.55,154.15 L186.55,180.6 C186.55,183.4 186.8,185.616667 187.3,187.25 C188.3,190.116667 190.916667,191.55 195.15,191.55 Z M214.55,191.5 C216.65,191.5 218.583333,191.291667 220.35,190.875 C222.116667,190.458333 223.833333,189.866667 225.5,189.1 L225.5,189.1 L225.5,182.55 C224.1,183.283333 222.683333,183.858333 221.25,184.275 C219.816667,184.691667 217.966667,184.9 215.7,184.9 C213.866667,184.9 212.375,184.5 211.225,183.7 C210.075,182.9 209.466667,181.816667 209.4,180.45 L209.4,180.45 L226.6,180.45 C226.633333,180.15 226.658333,179.791667 226.675,179.375 C226.691667,178.958333 226.7,178.583333 226.7,178.25 C226.7,173.95 225.658333,170.741667 223.575,168.625 C221.491667,166.508333 218.466667,165.45 214.5,165.45 C211.366667,165.45 208.783333,166.066667 206.75,167.3 C204.716667,168.533333 203.2,170.141667 202.2,172.125 C201.2,174.108333 200.7,176.25 200.7,178.55 C200.7,182.683333 201.925,185.875 204.375,188.125 C206.825,190.375 210.216667,191.5 214.55,191.5 Z M218.75,175.8 L209.55,175.8 C209.683333,174.433333 210.191667,173.4 211.075,172.7 C211.958333,172 213.066667,171.65 214.4,171.65 C215.766667,171.65 216.833333,172.033333 217.6,172.8 C218.366667,173.566667 218.75,174.566667 218.75,175.8 L218.75,175.8 Z M239,191 L239,180.65 C239,180.116667 239.016667,179.475 239.05,178.725 C239.083333,177.975 239.15,177.233333 239.25,176.5 C239.416667,175.466667 239.883333,174.566667 240.65,173.8 C241.416667,173.033333 242.4,172.65 243.6,172.65 C244.9,172.65 246.3,173.15 247.8,174.15 L247.8,174.15 L251.8,167.2 C251.166667,166.7 250.4,166.291667 249.5,165.975 C248.6,165.658333 247.533333,165.5 246.3,165.5 C244.6,165.5 243.1,165.925 241.8,166.775 C240.5,167.625 239.533333,168.7 238.9,170 L238.9,170 L238.9,165.9 L230.4,165.9 L230.4,191 L239,191 Z M263.45,191.5 C266.216667,191.5 268.6,190.816667 270.6,189.45 L270.6,189.45 L270.6,190.85 L277.45,190.85 L277.45,165.6 L270.6,166.6 L270.6,167.35 C268.6,165.983333 266.216667,165.3 263.45,165.3 C259.983333,165.3 257.041667,166.583333 254.625,169.15 C252.208333,171.716667 251,174.816667 251,178.45 C251,182.05 252.208333,185.125 254.625,187.675 C257.041667,190.225 259.983333,191.5 263.45,191.5 Z M264.5,185.3 C262.533333,185.3 260.933333,184.616667 259.7,183.25 C258.466667,181.883333 257.85,180.283333 257.85,178.45 C257.85,176.55 258.466667,174.925 259.7,173.575 C260.933333,172.225 262.533333,171.55 264.5,171.55 C266.733333,171.55 268.766667,172.516667 270.6,174.45 L270.6,174.45 L270.6,182.35 C268.766667,184.316667 266.733333,185.3 264.5,185.3 Z M291.6,191 L291.6,172.25 L297.85,172.25 L297.85,166 L291.6,166 L291.6,157.05 L283.55,159.7 L283.55,191 L291.6,191 Z M313.2,191.5 C317.466667,191.5 320.841667,190.266667 323.325,187.8 C325.808333,185.333333 327.05,182.216667 327.05,178.45 C327.05,174.583333 325.858333,171.433333 323.475,169 C321.091667,166.566667 317.666667,165.35 313.2,165.35 C310.3,165.35 307.816667,165.933333 305.75,167.1 C303.683333,168.266667 302.1,169.841667 301,171.825 C299.9,173.808333 299.35,176.066667 299.35,178.6 C299.35,182.566667 300.583333,185.708333 303.05,188.025 C305.516667,190.341667 308.9,191.5 313.2,191.5 Z M313.3,184.85 C311.533333,184.85 310.216667,184.275 309.35,183.125 C308.483333,181.975 308.05,180.433333 308.05,178.5 C308.05,176.7 308.458333,175.175 309.275,173.925 C310.091667,172.675 311.416667,172.05 313.25,172.05 C315.116667,172.05 316.441667,172.675 317.225,173.925 C318.008333,175.175 318.4,176.7 318.4,178.5 C318.4,180.3 317.991667,181.808333 317.175,183.025 C316.358333,184.241667 315.066667,184.85 313.3,184.85 Z M339.5,191 L339.5,180.65 C339.5,180.116667 339.516667,179.475 339.55,178.725 C339.583333,177.975 339.65,177.233333 339.75,176.5 C339.916667,175.466667 340.383333,174.566667 341.15,173.8 C341.916667,173.033333 342.9,172.65 344.1,172.65 C345.4,172.65 346.8,173.15 348.3,174.15 L348.3,174.15 L352.3,167.2 C351.666667,166.7 350.9,166.291667 350,165.975 C349.1,165.658333 348.033333,165.5 346.8,165.5 C345.1,165.5 343.6,165.925 342.3,166.775 C341,167.625 340.033333,168.7 339.4,170 L339.4,170 L339.4,165.9 L330.9,165.9 L330.9,191 L339.5,191 Z" id="æccelerator"></path>
        </g>
    </g>
</svg>